<mxfile host="65bd71144e">
    <diagram id="wpr-rNzZBCGx3osFse_V" name="Page-1">
        <mxGraphModel dx="1431" dy="804" grid="1" gridSize="10" guides="1" tooltips="1" connect="1" arrows="1" fold="1" page="1" pageScale="1" pageWidth="850" pageHeight="1100" math="0" shadow="0">
            <root>
                <mxCell id="0"/>
                <mxCell id="1" parent="0"/>
                <mxCell id="2" value="MORFEUS - FLUXOGRAMA DOS PROCESSOS DE BI" style="swimlane;childLayout=stackLayout;resizeParent=1;resizeParentMax=0;horizontal=1;startSize=20;horizontalStack=0;html=1;" vertex="1" parent="1">
                    <mxGeometry x="180" y="60" width="1660" height="1020" as="geometry"/>
                </mxCell>
                <mxCell id="3" value="MARKETING" style="swimlane;startSize=20;horizontal=0;html=1;" vertex="1" parent="2">
                    <mxGeometry y="20" width="1660" height="200" as="geometry"/>
                </mxCell>
                <mxCell id="10" style="edgeStyle=none;html=1;entryX=0;entryY=0.5;entryDx=0;entryDy=0;" edge="1" parent="3" source="7" target="8">
                    <mxGeometry relative="1" as="geometry"/>
                </mxCell>
                <mxCell id="7" value="Criação de anúncio em redes sociais e plataformas" style="whiteSpace=wrap;html=1;" vertex="1" parent="3">
                    <mxGeometry x="60" y="70" width="120" height="60" as="geometry"/>
                </mxCell>
                <mxCell id="16" style="edgeStyle=none;html=1;entryX=0;entryY=0.5;entryDx=0;entryDy=0;" edge="1" parent="3" source="8" target="12">
                    <mxGeometry relative="1" as="geometry"/>
                </mxCell>
                <mxCell id="8" value="Publicação dos anúncios" style="whiteSpace=wrap;html=1;" vertex="1" parent="3">
                    <mxGeometry x="220" y="70" width="120" height="60" as="geometry"/>
                </mxCell>
                <mxCell id="17" style="edgeStyle=none;html=1;entryX=0;entryY=0.5;entryDx=0;entryDy=0;" edge="1" parent="3" source="12" target="14">
                    <mxGeometry relative="1" as="geometry"/>
                </mxCell>
                <mxCell id="12" value="Usuário visualiza o anúncio" style="whiteSpace=wrap;html=1;" vertex="1" parent="3">
                    <mxGeometry x="380" y="70" width="120" height="60" as="geometry"/>
                </mxCell>
                <mxCell id="18" style="edgeStyle=none;html=1;entryX=0;entryY=0.5;entryDx=0;entryDy=0;" edge="1" parent="3" source="14" target="9">
                    <mxGeometry relative="1" as="geometry"/>
                </mxCell>
                <mxCell id="14" value="Usuário acessa o anúncio" style="whiteSpace=wrap;html=1;" vertex="1" parent="3">
                    <mxGeometry x="540" y="70" width="120" height="60" as="geometry"/>
                </mxCell>
                <mxCell id="9" value="Captura de analytics dos anúncios" style="whiteSpace=wrap;html=1;" vertex="1" parent="3">
                    <mxGeometry x="700" y="70" width="120" height="60" as="geometry"/>
                </mxCell>
                <mxCell id="4" value="APP STORE" style="swimlane;startSize=20;horizontal=0;html=1;" vertex="1" parent="2">
                    <mxGeometry y="220" width="1660" height="200" as="geometry"/>
                </mxCell>
                <mxCell id="24" style="edgeStyle=none;html=1;entryX=0;entryY=0.5;entryDx=0;entryDy=0;" edge="1" parent="4" source="19" target="23">
                    <mxGeometry relative="1" as="geometry"/>
                </mxCell>
                <mxCell id="19" value="Usuário acessa a página do aplicativo" style="whiteSpace=wrap;html=1;" vertex="1" parent="4">
                    <mxGeometry x="220" y="70" width="120" height="60" as="geometry"/>
                </mxCell>
                <mxCell id="22" style="edgeStyle=none;html=1;entryX=0;entryY=0.5;entryDx=0;entryDy=0;" edge="1" parent="4" source="21" target="19">
                    <mxGeometry relative="1" as="geometry"/>
                </mxCell>
                <mxCell id="21" value="Usuário procura por aplicativos" style="whiteSpace=wrap;html=1;" vertex="1" parent="4">
                    <mxGeometry x="60" y="70" width="120" height="60" as="geometry"/>
                </mxCell>
                <mxCell id="23" value="Usuário instala o aplicativo" style="whiteSpace=wrap;html=1;" vertex="1" parent="4">
                    <mxGeometry x="380" y="70" width="120" height="60" as="geometry"/>
                </mxCell>
                <mxCell id="40" value="Aplicativo têm sua avaliação atualizada" style="whiteSpace=wrap;html=1;" vertex="1" parent="4">
                    <mxGeometry x="540" y="70" width="120" height="60" as="geometry"/>
                </mxCell>
                <mxCell id="70" value="Aplicativo recebe uma atualização" style="whiteSpace=wrap;html=1;" vertex="1" parent="4">
                    <mxGeometry x="700" y="70" width="120" height="60" as="geometry"/>
                </mxCell>
                <mxCell id="81" value="Página do aplicativo atualiza os analytics" style="whiteSpace=wrap;html=1;" vertex="1" parent="4">
                    <mxGeometry x="860" y="70" width="120" height="60" as="geometry"/>
                </mxCell>
                <mxCell id="5" value="APLICAÇÃO" style="swimlane;startSize=20;horizontal=0;html=1;" vertex="1" parent="2">
                    <mxGeometry y="420" width="1660" height="200" as="geometry"/>
                </mxCell>
                <mxCell id="29" style="edgeStyle=none;html=1;entryX=0;entryY=0.5;entryDx=0;entryDy=0;" edge="1" parent="5" source="25" target="28">
                    <mxGeometry relative="1" as="geometry"/>
                </mxCell>
                <mxCell id="25" value="Usuário acessa o aplicativo" style="whiteSpace=wrap;html=1;" vertex="1" parent="5">
                    <mxGeometry x="60" y="70" width="120" height="60" as="geometry"/>
                </mxCell>
                <mxCell id="73" style="edgeStyle=none;html=1;entryX=0;entryY=0.5;entryDx=0;entryDy=0;" edge="1" parent="5" source="28" target="72">
                    <mxGeometry relative="1" as="geometry"/>
                </mxCell>
                <mxCell id="28" value="Usuário utiliza o aplicativo" style="whiteSpace=wrap;html=1;" vertex="1" parent="5">
                    <mxGeometry x="220" y="70" width="120" height="60" as="geometry"/>
                </mxCell>
                <mxCell id="43" style="edgeStyle=none;html=1;entryX=0;entryY=0.5;entryDx=0;entryDy=0;" edge="1" parent="5" source="36" target="42">
                    <mxGeometry relative="1" as="geometry"/>
                </mxCell>
                <mxCell id="36" value="Usuário publica uma avaliação" style="whiteSpace=wrap;html=1;" vertex="1" parent="5">
                    <mxGeometry x="700" y="70" width="120" height="60" as="geometry"/>
                </mxCell>
                <mxCell id="57" style="edgeStyle=none;html=1;entryX=0;entryY=0.5;entryDx=0;entryDy=0;" edge="1" parent="5" source="42" target="49">
                    <mxGeometry relative="1" as="geometry"/>
                </mxCell>
                <mxCell id="42" value="Usuário realiza uma sugestão á aplicação" style="whiteSpace=wrap;html=1;" vertex="1" parent="5">
                    <mxGeometry x="860" y="70" width="120" height="60" as="geometry"/>
                </mxCell>
                <mxCell id="49" value="Usuário reporta um bug" style="whiteSpace=wrap;html=1;" vertex="1" parent="5">
                    <mxGeometry x="1020" y="70" width="120" height="60" as="geometry"/>
                </mxCell>
                <mxCell id="75" style="edgeStyle=none;html=1;entryX=0.5;entryY=1;entryDx=0;entryDy=0;exitX=0.5;exitY=1;exitDx=0;exitDy=0;" edge="1" parent="5" source="72" target="36">
                    <mxGeometry relative="1" as="geometry">
                        <Array as="points">
                            <mxPoint x="590" y="160"/>
                        </Array>
                    </mxGeometry>
                </mxCell>
                <mxCell id="76" style="edgeStyle=none;html=1;entryX=0;entryY=0.5;entryDx=0;entryDy=0;" edge="1" parent="5" source="72" target="74">
                    <mxGeometry relative="1" as="geometry"/>
                </mxCell>
                <mxCell id="72" value="Usuário assina&lt;br&gt;o aplicativo" style="rhombus;whiteSpace=wrap;html=1;" vertex="1" parent="5">
                    <mxGeometry x="380" y="60" width="120" height="80" as="geometry"/>
                </mxCell>
                <mxCell id="77" style="edgeStyle=none;html=1;entryX=0;entryY=0.5;entryDx=0;entryDy=0;" edge="1" parent="5" source="74" target="36">
                    <mxGeometry relative="1" as="geometry"/>
                </mxCell>
                <mxCell id="74" value="Usuário assina o aplicativo" style="whiteSpace=wrap;html=1;" vertex="1" parent="5">
                    <mxGeometry x="540" y="70" width="120" height="60" as="geometry"/>
                </mxCell>
                <mxCell id="78" value="Usuário deseja cancelar a assinatura" style="whiteSpace=wrap;html=1;" vertex="1" parent="5">
                    <mxGeometry x="1180" y="70" width="120" height="60" as="geometry"/>
                </mxCell>
                <mxCell id="80" style="edgeStyle=none;html=1;entryX=0.5;entryY=1;entryDx=0;entryDy=0;exitX=0.5;exitY=1;exitDx=0;exitDy=0;" edge="1" parent="5" source="74" target="78">
                    <mxGeometry relative="1" as="geometry">
                        <mxPoint x="1230" y="140" as="targetPoint"/>
                        <Array as="points">
                            <mxPoint x="900" y="160"/>
                        </Array>
                    </mxGeometry>
                </mxCell>
                <mxCell id="84" value="Usuário deseja desinstalar o aplicativo" style="whiteSpace=wrap;html=1;" vertex="1" parent="5">
                    <mxGeometry x="1340" y="70" width="120" height="60" as="geometry"/>
                </mxCell>
                <mxCell id="6" value="CUSTOMER SUCCESS" style="swimlane;startSize=20;horizontal=0;html=1;" vertex="1" parent="2">
                    <mxGeometry y="620" width="1660" height="200" as="geometry"/>
                </mxCell>
                <mxCell id="51" style="edgeStyle=none;html=1;entryX=0;entryY=0.5;entryDx=0;entryDy=0;" edge="1" parent="6" source="44" target="50">
                    <mxGeometry relative="1" as="geometry"/>
                </mxCell>
                <mxCell id="44" value="CS recebe uma sugestão á aplicação" style="whiteSpace=wrap;html=1;" vertex="1" parent="6">
                    <mxGeometry x="60" y="70" width="120" height="60" as="geometry"/>
                </mxCell>
                <mxCell id="50" value="CS aprova a sugestão" style="whiteSpace=wrap;html=1;" vertex="1" parent="6">
                    <mxGeometry x="220" y="70" width="120" height="60" as="geometry"/>
                </mxCell>
                <mxCell id="60" style="edgeStyle=none;html=1;entryX=0;entryY=0.5;entryDx=0;entryDy=0;" edge="1" parent="6" source="55" target="59">
                    <mxGeometry relative="1" as="geometry"/>
                </mxCell>
                <mxCell id="55" value="CS recebe um report de bug" style="whiteSpace=wrap;html=1;" vertex="1" parent="6">
                    <mxGeometry x="380" y="70" width="120" height="60" as="geometry"/>
                </mxCell>
                <mxCell id="62" style="edgeStyle=none;html=1;entryX=0;entryY=0.5;entryDx=0;entryDy=0;" edge="1" parent="6" source="59" target="61">
                    <mxGeometry relative="1" as="geometry"/>
                </mxCell>
                <mxCell id="59" value="CS valida o bug" style="whiteSpace=wrap;html=1;" vertex="1" parent="6">
                    <mxGeometry x="540" y="70" width="120" height="60" as="geometry"/>
                </mxCell>
                <mxCell id="61" value="CS mapeia o incidente" style="whiteSpace=wrap;html=1;" vertex="1" parent="6">
                    <mxGeometry x="700" y="70" width="120" height="60" as="geometry"/>
                </mxCell>
                <mxCell id="89" style="edgeStyle=none;html=1;entryX=0.5;entryY=1;entryDx=0;entryDy=0;exitX=0.5;exitY=1;exitDx=0;exitDy=0;" edge="1" parent="6" source="79" target="88">
                    <mxGeometry relative="1" as="geometry">
                        <Array as="points">
                            <mxPoint x="1400" y="160"/>
                        </Array>
                    </mxGeometry>
                </mxCell>
                <mxCell id="79" value="CS recebe um formulário de desejo de cancelamento de assinatura" style="whiteSpace=wrap;html=1;" vertex="1" parent="6">
                    <mxGeometry x="1180" y="70" width="120" height="60" as="geometry"/>
                </mxCell>
                <mxCell id="90" style="edgeStyle=none;html=1;entryX=0;entryY=0.5;entryDx=0;entryDy=0;" edge="1" parent="6" source="86" target="88">
                    <mxGeometry relative="1" as="geometry"/>
                </mxCell>
                <mxCell id="86" value="CS recebe um formulário de desinstalação do aplicativo" style="whiteSpace=wrap;html=1;" vertex="1" parent="6">
                    <mxGeometry x="1340" y="70" width="120" height="60" as="geometry"/>
                </mxCell>
                <mxCell id="88" value="CS mapeia uma necessidade de melhoramento" style="whiteSpace=wrap;html=1;" vertex="1" parent="6">
                    <mxGeometry x="1500" y="70" width="120" height="60" as="geometry"/>
                </mxCell>
                <mxCell id="45" value="DESENVOLVIMENTO" style="swimlane;startSize=20;horizontal=0;html=1;" vertex="1" parent="2">
                    <mxGeometry y="820" width="1660" height="200" as="geometry"/>
                </mxCell>
                <mxCell id="56" style="edgeStyle=none;html=1;entryX=0;entryY=0.5;entryDx=0;entryDy=0;" edge="1" parent="45" source="52" target="53">
                    <mxGeometry relative="1" as="geometry"/>
                </mxCell>
                <mxCell id="52" value="Desenvolvimento recebe uma demanda" style="whiteSpace=wrap;html=1;" vertex="1" parent="45">
                    <mxGeometry x="60" y="70" width="120" height="60" as="geometry"/>
                </mxCell>
                <mxCell id="66" style="edgeStyle=none;html=1;entryX=0.5;entryY=1;entryDx=0;entryDy=0;exitX=0.5;exitY=1;exitDx=0;exitDy=0;" edge="1" parent="45" source="53" target="63">
                    <mxGeometry relative="1" as="geometry">
                        <Array as="points">
                            <mxPoint x="440" y="170"/>
                        </Array>
                    </mxGeometry>
                </mxCell>
                <mxCell id="53" value="Desenvolvimento aprova a demanda" style="whiteSpace=wrap;html=1;" vertex="1" parent="45">
                    <mxGeometry x="220" y="70" width="120" height="60" as="geometry"/>
                </mxCell>
                <mxCell id="69" style="edgeStyle=none;html=1;entryX=0;entryY=0.5;entryDx=0;entryDy=0;" edge="1" parent="45" source="63" target="68">
                    <mxGeometry relative="1" as="geometry"/>
                </mxCell>
                <mxCell id="63" value="Desenvolvimento implementa a demanda" style="whiteSpace=wrap;html=1;" vertex="1" parent="45">
                    <mxGeometry x="540" y="70" width="120" height="60" as="geometry"/>
                </mxCell>
                <mxCell id="67" style="edgeStyle=none;html=1;entryX=0;entryY=0.5;entryDx=0;entryDy=0;" edge="1" parent="45" source="65" target="63">
                    <mxGeometry relative="1" as="geometry"/>
                </mxCell>
                <mxCell id="65" value="Desenvolvimento recebe um incidente" style="whiteSpace=wrap;html=1;" vertex="1" parent="45">
                    <mxGeometry x="380" y="70" width="120" height="60" as="geometry"/>
                </mxCell>
                <mxCell id="68" value="Desenvolvimento homologa a demanda" style="whiteSpace=wrap;html=1;" vertex="1" parent="45">
                    <mxGeometry x="700" y="70" width="120" height="60" as="geometry"/>
                </mxCell>
                <mxCell id="93" value="Product Owner cria nova demanda" style="whiteSpace=wrap;html=1;" vertex="1" parent="45">
                    <mxGeometry x="1220" y="70" width="120" height="60" as="geometry"/>
                </mxCell>
                <mxCell id="94" style="edgeStyle=none;html=1;entryX=0.5;entryY=1;entryDx=0;entryDy=0;" edge="1" parent="45" source="93" target="52">
                    <mxGeometry relative="1" as="geometry">
                        <mxPoint x="630" y="160" as="targetPoint"/>
                        <Array as="points">
                            <mxPoint x="570" y="160"/>
                        </Array>
                    </mxGeometry>
                </mxCell>
                <mxCell id="20" style="edgeStyle=none;html=1;entryX=0.5;entryY=0;entryDx=0;entryDy=0;" edge="1" parent="2" source="14" target="19">
                    <mxGeometry relative="1" as="geometry">
                        <Array as="points">
                            <mxPoint x="600" y="240"/>
                            <mxPoint x="280" y="240"/>
                        </Array>
                    </mxGeometry>
                </mxCell>
                <mxCell id="26" style="edgeStyle=none;html=1;entryX=0.5;entryY=0;entryDx=0;entryDy=0;exitX=0.5;exitY=1;exitDx=0;exitDy=0;" edge="1" parent="2" source="23" target="25">
                    <mxGeometry relative="1" as="geometry">
                        <mxPoint x="220" y="480" as="targetPoint"/>
                        <Array as="points">
                            <mxPoint x="440" y="440"/>
                            <mxPoint x="120" y="440"/>
                        </Array>
                    </mxGeometry>
                </mxCell>
                <mxCell id="41" style="edgeStyle=none;html=1;entryX=0.5;entryY=1;entryDx=0;entryDy=0;" edge="1" parent="2" source="36" target="40">
                    <mxGeometry relative="1" as="geometry">
                        <Array as="points">
                            <mxPoint x="760" y="450"/>
                            <mxPoint x="600" y="450"/>
                        </Array>
                    </mxGeometry>
                </mxCell>
                <mxCell id="46" style="edgeStyle=none;html=1;entryX=0.5;entryY=0;entryDx=0;entryDy=0;" edge="1" parent="2" source="42" target="44">
                    <mxGeometry relative="1" as="geometry">
                        <Array as="points">
                            <mxPoint x="920" y="640"/>
                            <mxPoint x="120" y="640"/>
                        </Array>
                    </mxGeometry>
                </mxCell>
                <mxCell id="54" style="edgeStyle=none;html=1;entryX=0.5;entryY=0;entryDx=0;entryDy=0;" edge="1" parent="2" source="50" target="52">
                    <mxGeometry relative="1" as="geometry">
                        <Array as="points">
                            <mxPoint x="280" y="860"/>
                            <mxPoint x="120" y="860"/>
                        </Array>
                    </mxGeometry>
                </mxCell>
                <mxCell id="58" style="edgeStyle=none;html=1;entryX=0.5;entryY=0;entryDx=0;entryDy=0;" edge="1" parent="2" source="49" target="55">
                    <mxGeometry relative="1" as="geometry">
                        <Array as="points">
                            <mxPoint x="1080" y="660"/>
                            <mxPoint x="440" y="660"/>
                        </Array>
                    </mxGeometry>
                </mxCell>
                <mxCell id="71" style="edgeStyle=none;html=1;entryX=0.5;entryY=1;entryDx=0;entryDy=0;" edge="1" parent="2" source="68" target="70">
                    <mxGeometry relative="1" as="geometry">
                        <mxPoint x="870" y="320" as="targetPoint"/>
                        <Array as="points">
                            <mxPoint x="1160" y="920"/>
                            <mxPoint x="1160" y="380"/>
                            <mxPoint x="760" y="380"/>
                        </Array>
                    </mxGeometry>
                </mxCell>
                <mxCell id="82" style="edgeStyle=none;html=1;entryX=1;entryY=0.5;entryDx=0;entryDy=0;" edge="1" parent="2" source="78" target="81">
                    <mxGeometry relative="1" as="geometry">
                        <mxPoint x="970" y="380" as="targetPoint"/>
                        <Array as="points">
                            <mxPoint x="1240" y="320"/>
                        </Array>
                    </mxGeometry>
                </mxCell>
                <mxCell id="83" style="edgeStyle=none;html=1;entryX=0.5;entryY=0;entryDx=0;entryDy=0;" edge="1" parent="2" source="78" target="79">
                    <mxGeometry relative="1" as="geometry"/>
                </mxCell>
                <mxCell id="85" style="edgeStyle=none;html=1;entryX=1;entryY=0.5;entryDx=0;entryDy=0;" edge="1" parent="2" source="84" target="81">
                    <mxGeometry relative="1" as="geometry">
                        <Array as="points">
                            <mxPoint x="1400" y="320"/>
                        </Array>
                    </mxGeometry>
                </mxCell>
                <mxCell id="87" style="edgeStyle=none;html=1;entryX=0.5;entryY=0;entryDx=0;entryDy=0;" edge="1" parent="2" source="84" target="86">
                    <mxGeometry relative="1" as="geometry"/>
                </mxCell>
                <mxCell id="92" style="edgeStyle=none;html=1;entryX=0.5;entryY=0;entryDx=0;entryDy=0;exitX=0.5;exitY=1;exitDx=0;exitDy=0;" edge="1" parent="2" source="88" target="52">
                    <mxGeometry relative="1" as="geometry">
                        <mxPoint x="190" y="860" as="targetPoint"/>
                        <Array as="points">
                            <mxPoint x="1560" y="860"/>
                            <mxPoint x="120" y="860"/>
                        </Array>
                    </mxGeometry>
                </mxCell>
            </root>
        </mxGraphModel>
    </diagram>
</mxfile>